<svg xmlns="http://www.w3.org/2000/svg" width="36.435" height="30.551" viewBox="0 0 36.435 30.551" class="p-cdnCacheSetting__modeButtonIcon p-cdnCacheSetting__modeButtonIcon--auto"><g transform="translate(0.75 0.75)"><g><path d="M406.385,925.374c4.374-4.081,8.42-8.561,14.5-9.918a12.647,12.647,0,0,1,2.736-.278,17.4,17.4,0,0,1,8.06,1.929,23.745,23.745,0,0,1,5.68,4.446c.325.327,3.88,3.821,3.954,3.746a48.766,48.766,0,0,1-7.578,6.952,18.46,18.46,0,0,1-10.116,3.2,17.3,17.3,0,0,1-8.709-2.337c-2.91-1.7-5.067-4.367-7.454-6.693Z" transform="translate(-406.385 -910.877)" fill="none" stroke="#666" stroke-linecap="round" stroke-linejoin="round" stroke-width="1.5"></path> <ellipse cx="7.889" cy="7.889" rx="7.889" ry="7.889" transform="translate(9.578 6.608)" fill="rgba(124,232,221,0.53)" stroke="#666" stroke-linecap="round" stroke-linejoin="round" stroke-width="1.5"></ellipse> <path d="M452.374,931.158a5.44,5.44,0,1,1-5.44,5.44" transform="translate(-434.865 -922.102)" fill="none" stroke="#666" stroke-linecap="round" stroke-linejoin="round" stroke-width="1.5"></path> <ellipse cx="1.839" cy="1.839" rx="1.839" ry="1.839" transform="translate(15.628 12.658)" fill="none" stroke="#666" stroke-linecap="round" stroke-linejoin="round" stroke-width="1.5"></ellipse> <path d="M420.6,900.921h-4.291V905.1" transform="translate(-413.357 -900.864)" fill="none" stroke="#666" stroke-linecap="round" stroke-linejoin="round" stroke-width="1.5"></path> <path d="M503.874,905.019v-4.291H499.7" transform="translate(-471.926 -900.729)" fill="none" stroke="#666" stroke-linecap="round" stroke-linejoin="round" stroke-width="1.5"></path> <path d="M499.313,988.292H503.6v-4.176" transform="translate(-471.656 -959.298)" fill="none" stroke="#666" stroke-linecap="round" stroke-linejoin="round" stroke-width="1.5"></path> <path d="M416.311,983.923v4.291h4.176" transform="translate(-413.357 -959.163)" fill="none" stroke="#666" stroke-linecap="round" stroke-linejoin="round" stroke-width="1.5"></path></g></g></svg>