<svg xmlns="http://www.w3.org/2000/svg" width="48.895" height="52.615" viewBox="0 0 48.895 52.615" slot="icon"><g id="Group_6285" data-name="Group 6285" transform="translate(-745.365 -917.223)"><rect id="Rectangle_1503" data-name="Rectangle 1503" width="47.341" height="3.382" rx="1.691" transform="translate(746.142 965.679)" fill="#4dcec4" opacity="0.7"></rect> <path id="Path_2211" data-name="Path 2211" d="M771.635,925.55h-4.058v4.058h-3.72V925.55h-3.72v4.058h-3.719V925.55H752.36v9.468h10.482l-7.778.676-2.7,31.786h19.274l-3.381-32.462h3.381Zm-7.271,25.192H759.63v-6.425a2.367,2.367,0,1,1,4.734,0Z" transform="translate(-1.484 -1.801)" fill="#60e4dd" opacity="0.4"></path> <path id="Path_2212" data-name="Path 2212" d="M759.735,929.608l-.338,5.41H752.36V925.55h4.058v4.058Z" transform="translate(-1.483 -1.801)" fill="#60e4dd" opacity="0.4"></path> <path id="Path_2213" data-name="Path 2213" d="M771.634,925.55v9.468H752.36V925.55h4.058v4.058h3.72V925.55h3.72v4.058h3.72V925.55Z" transform="translate(-1.483 -1.801)" fill="#4dcec4" opacity="0.7"></path> <path id="Path_2214" data-name="Path 2214" d="M748.847,980.619h-1.014a1.691,1.691,0,0,0-1.691,1.691h0a1.691,1.691,0,0,0,1.691,1.69h43.96a1.69,1.69,0,0,0,1.69-1.69h0a1.691,1.691,0,0,0-1.69-1.691H790.44" transform="translate(0 -14.94)" fill="none" stroke="#4d4d4d" stroke-linecap="round" stroke-linejoin="round" stroke-width="1.554"></path> <g id="Group_4294" data-name="Group 4294" transform="translate(750.876 923.749)"><path id="Path_2215" data-name="Path 2215" d="M762.842,935.018H752.36V925.55h4.058v4.058h3.72V925.55h3.72v4.058h3.72V925.55h4.058v9.468h-3.382l3.382,32.463H752.36l2.705-31.786" transform="translate(-752.36 -925.55)" fill="none" stroke="#4d4d4d" stroke-linecap="round" stroke-linejoin="round" stroke-width="1.554"></path> <path id="Path_2216" data-name="Path 2216" d="M761.908,949.456v6.425h4.734v-6.425a2.367,2.367,0,0,0-2.366-2.367h0A2.367,2.367,0,0,0,761.908,949.456Z" transform="translate(-754.638 -930.689)" fill="none" stroke="#4d4d4d" stroke-linecap="round" stroke-linejoin="round" stroke-width="1.554"></path> <line id="Line_502" data-name="Line 502" x2="5.104" transform="translate(0.813 34.407)" fill="none" stroke="#4d4d4d" stroke-linecap="round" stroke-linejoin="round" stroke-width="1.554"></line> <line id="Line_503" data-name="Line 503" x1="3.075" transform="translate(0.813 36.351)" fill="none" stroke="#4d4d4d" stroke-linecap="round" stroke-linejoin="round" stroke-width="1.554"></line> <path id="Path_2217" data-name="Path 2217" d="M768.151,958.858h-9.13" transform="translate(-753.949 -933.497)" fill="none" stroke="#4d4d4d" stroke-linecap="round" stroke-linejoin="round" stroke-width="1.554"></path></g> <g id="Group_4295" data-name="Group 4295" transform="translate(772.856 937.915)"><path id="Path_2218" data-name="Path 2218" d="M789.5,951.631h-8.276v-7.475h3.2v3.2h2.937v-3.2H790.3v3.2h2.937v-3.2h3.2v7.475h-2.67l2.67,20.289H781.227l2.136-19.755" transform="translate(-781.227 -944.156)" fill="none" stroke="#4d4d4d" stroke-linecap="round" stroke-linejoin="round" stroke-width="1.554"></path> <rect id="Rectangle_1504" data-name="Rectangle 1504" width="3.737" height="3.204" transform="translate(5.74 11.346)" fill="none" stroke="#4d4d4d" stroke-linecap="round" stroke-linejoin="round" stroke-width="1.554"></rect> <line id="Line_504" data-name="Line 504" x2="4.03" transform="translate(0.642 21.824)" fill="none" stroke="#4d4d4d" stroke-linecap="round" stroke-linejoin="round" stroke-width="1.554"></line> <line id="Line_505" data-name="Line 505" x1="2.428" transform="translate(0.642 23.359)" fill="none" stroke="#4d4d4d" stroke-linecap="round" stroke-linejoin="round" stroke-width="1.554"></line></g> <g id="Group_4296" data-name="Group 4296" transform="translate(774.885 918)"><path id="Path_2219" data-name="Path 2219" d="M795.54,925.5h-6.763v-1.691h1.691v-2.705h5.072Z" transform="translate(-785.057 -918.742)" fill="#60e4dd" opacity="0.4"></path> <rect id="Rectangle_1505" data-name="Rectangle 1505" width="5.41" height="5.072" fill="#4dcec4" opacity="0.7"></rect> <path id="Path_2220" data-name="Path 2220" d="M783.891,934.908V918h5.41v5.072h-5.41" transform="translate(-783.891 -918)" fill="none" stroke="#4d4d4d" stroke-linecap="round" stroke-linejoin="round" stroke-width="1.554"></path> <path id="Path_2221" data-name="Path 2221" d="M790.805,921.109h4.734v4.565h-6.763v-1.78" transform="translate(-785.057 -918.742)" fill="none" stroke="#4d4d4d" stroke-linecap="round" stroke-linejoin="round" stroke-width="1.554"></path></g></g></svg>