<svg xmlns="http://www.w3.org/2000/svg" width="67.836" height="51.101" viewBox="0 0 67.836 51.101" slot="icon"><g id="Group_6287" data-name="Group 6287" transform="translate(0.777 0.777)"><rect id="Rectangle_1506" data-name="Rectangle 1506" width="65.953" height="3.281" rx="1.641" transform="translate(0 46.266)" fill="#4dcec4" opacity="0.7"></rect> <path id="Path_2222" data-name="Path 2222" d="M914.566,971.36h-3.937V959.548a5.579,5.579,0,0,0-5.578-5.578h0a5.578,5.578,0,0,0-5.578,5.578V971.36H895.69l-3.436-24.609h3.281v4.027h3.937v-4.355h3.281v4.265h4.266v-4.265h3.609v4.265h3.937v-3.937h2.625Z" transform="translate(-872.238 -925.423)" fill="#60e4dd" opacity="0.4"></path> <path id="Path_2223" data-name="Path 2223" d="M921.022,925.374h-6.562v-1.641H916.1v-2.625h4.922Z" transform="translate(-878.037 -918.812)" fill="#60e4dd" opacity="0.4"></path> <rect id="Rectangle_1507" data-name="Rectangle 1507" width="5.25" height="4.922" transform="translate(32.813)" fill="#4dcec4" opacity="0.7"></rect> <g id="Group_4297" data-name="Group 4297"><path id="Path_2224" data-name="Path 2224" d="M881.553,943.62H871.381v-9.188h3.938v3.938h3.609v-3.938h3.609v3.938h3.609v-3.938h3.938v9.188H886.8l3.281,24.938h-18.7l2.625-24.281" transform="translate(-866.787 -922.291)" fill="none" stroke="#4d4d4d" stroke-linecap="round" stroke-linejoin="round" stroke-width="1.554"></path> <path id="Path_2225" data-name="Path 2225" d="M925.078,944.276l-2.625,24.281h18.7l-3.281-24.937h3.281v-9.188h-3.937v3.938h-3.609v-3.938H930v3.938h-3.609v-3.938h-3.937v9.188h10.172" transform="translate(-880.125 -922.291)" fill="none" stroke="#4d4d4d" stroke-linecap="round" stroke-linejoin="round" stroke-width="1.554"></path> <path id="Path_2226" data-name="Path 2226" d="M867.788,980.619H866.8a1.641,1.641,0,0,0-1.641,1.641h0a1.64,1.64,0,0,0,1.641,1.64h63a1.64,1.64,0,0,0,1.64-1.64h0a1.641,1.641,0,0,0-1.64-1.641h-1.313" transform="translate(-865.163 -934.354)" fill="none" stroke="#4d4d4d" stroke-linecap="round" stroke-linejoin="round" stroke-width="1.554"></path> <line id="Line_506" data-name="Line 506" x2="20.259" transform="translate(23.297 46.266)" fill="none" stroke="#4d4d4d" stroke-linecap="round" stroke-linejoin="round" stroke-width="1.554"></line> <path id="Path_2227" data-name="Path 2227" d="M902.079,974.356V962.2a5.558,5.558,0,0,1,5.558-5.558h0a5.558,5.558,0,0,1,5.558,5.558v12.161" transform="translate(-874.804 -928.09)" fill="none" stroke="#4d4d4d" stroke-linecap="round" stroke-linejoin="round" stroke-width="1.554"></path> <path id="Path_2228" data-name="Path 2228" d="M896.695,949.048v1.641h3.938v-4.266h3.609v4.266h3.938v-4.266h3.609v4.266h3.938v-1.641" transform="translate(-873.398 -925.423)" fill="none" stroke="#4d4d4d" stroke-linecap="round" stroke-linejoin="round" stroke-width="1.554"></path> <path id="Path_2229" data-name="Path 2229" d="M909.574,936.375V918h5.25v4.922h-5.25" transform="translate(-876.761 -918)" fill="none" stroke="#4d4d4d" stroke-linecap="round" stroke-linejoin="round" stroke-width="1.554"></path> <path id="Path_2230" data-name="Path 2230" d="M916.428,921.109h4.594v4.43h-6.562v-1.728" transform="translate(-878.037 -918.812)" fill="none" stroke="#4d4d4d" stroke-linecap="round" stroke-linejoin="round" stroke-width="1.554"></path> <rect id="Rectangle_1508" data-name="Rectangle 1508" width="4.594" height="3.938" transform="translate(11.649 26.086)" fill="none" stroke="#4d4d4d" stroke-linecap="round" stroke-linejoin="round" stroke-width="1.554"></rect> <rect id="Rectangle_1509" data-name="Rectangle 1509" width="4.594" height="3.938" transform="translate(49.383 26.086)" fill="none" stroke="#4d4d4d" stroke-linecap="round" stroke-linejoin="round" stroke-width="1.554"></rect> <line id="Line_507" data-name="Line 507" x2="4.953" transform="translate(5.383 38.965)" fill="none" stroke="#4d4d4d" stroke-linecap="round" stroke-linejoin="round" stroke-width="1.554"></line> <line id="Line_508" data-name="Line 508" x1="2.984" transform="translate(5.383 40.852)" fill="none" stroke="#4d4d4d" stroke-linecap="round" stroke-linejoin="round" stroke-width="1.554"></line> <line id="Line_509" data-name="Line 509" x1="5.281" transform="translate(54.766 38.965)" fill="none" stroke="#4d4d4d" stroke-linecap="round" stroke-linejoin="round" stroke-width="1.554"></line> <line id="Line_510" data-name="Line 510" x2="3.182" transform="translate(56.865 40.852)" fill="none" stroke="#4d4d4d" stroke-linecap="round" stroke-linejoin="round" stroke-width="1.554"></line></g></g></svg>