<svg xmlns="http://www.w3.org/2000/svg" width="54.328" height="46.618" viewBox="0 0 54.328 46.618" slot="icon"><g id="Group_6284" data-name="Group 6284" transform="translate(-436.662 -921.094)"><path id="Path_2321" data-name="Path 2321" d="M480.027,951.646h4.909v-2.835a3.036,3.036,0,0,1,3.036-3.036h0a3.035,3.035,0,0,1,3.036,3.036v2.8a6.3,6.3,0,0,1-6.3,6.3h-4.676" transform="translate(-11.275 -6.32)" fill="#60e4dd" opacity="0.4"></path> <path id="Path_2322" data-name="Path 2322" d="M462.6,937.174h-4.931v-2.835a3.042,3.042,0,0,0-3.048-3.036h0a3.042,3.042,0,0,0-3.049,3.036v2.8a6.318,6.318,0,0,0,6.331,6.3h4.7" transform="translate(-3.71 -2.473)" fill="#60e4dd" opacity="0.4"></path> <path id="Path_2323" data-name="Path 2323" d="M466.557,962.15V930.425A5.145,5.145,0,0,1,471.5,925.1h0a5.145,5.145,0,0,1,4.945,5.324v32.587l-3.059,1.172" transform="translate(-7.694 -0.824)" fill="#4dcec4" opacity="0.7"></path> <path id="Path_2324" data-name="Path 2324" d="M477.343,930.424v32.587l-3.059,1.172-2.778-.827.9-.345V930.424a5.519,5.519,0,0,0-1.45-3.764,4.912,4.912,0,0,0-1.028-.849,4.636,4.636,0,0,1,2.466-.71,4.749,4.749,0,0,1,3.495,1.559A5.519,5.519,0,0,1,477.343,930.424Z" transform="translate(-8.592 -0.824)" fill="#4dcec4" opacity="0.8"></path> <path id="Path_2325" data-name="Path 2325" d="M437.613,973.149s14.419-.759,26.561,3.414,25.8,3.795,25.8,3.795" transform="translate(0 -13.583)" fill="none" stroke="#4d4d4d" stroke-linecap="round" stroke-linejoin="round" stroke-width="1.809"></path> <path id="Path_2326" data-name="Path 2326" d="M500.145,973.1a51.751,51.751,0,0,0-24.285,3.794" transform="translate(-10.167 -13.53)" fill="none" stroke="#4d4d4d" stroke-linecap="round" stroke-linejoin="round" stroke-width="1.809"></path> <path id="Path_2327" data-name="Path 2327" d="M466.557,962.15V930.425A5.145,5.145,0,0,1,471.5,925.1h0a5.145,5.145,0,0,1,4.945,5.324v32.587" transform="translate(-7.694 -0.824)" fill="none" stroke="#4d4d4d" stroke-linecap="round" stroke-linejoin="round" stroke-width="1.809"></path> <path id="Path_2328" data-name="Path 2328" d="M480.027,951.646h4.909v-2.835a3.036,3.036,0,0,1,3.036-3.036h0a3.035,3.035,0,0,1,3.036,3.036v2.8a6.3,6.3,0,0,1-6.3,6.3h-4.676" transform="translate(-11.275 -6.32)" fill="none" stroke="#4d4d4d" stroke-linecap="round" stroke-linejoin="round" stroke-width="1.809"></path> <path id="Path_2329" data-name="Path 2329" d="M462.6,937.174h-4.931v-2.835a3.042,3.042,0,0,0-3.048-3.036h0a3.042,3.042,0,0,0-3.049,3.036v2.8a6.318,6.318,0,0,0,6.331,6.3h4.7" transform="translate(-3.71 -2.473)" fill="none" stroke="#4d4d4d" stroke-linecap="round" stroke-linejoin="round" stroke-width="1.813"></path> <line id="Line_531" data-name="Line 531" y1="2.277" transform="translate(463.795 922)" fill="none" stroke="#4d4d4d" stroke-linecap="round" stroke-linejoin="round" stroke-width="1.813"></line> <line id="Line_532" data-name="Line 532" y1="2.277" transform="translate(476.696 936.799)" fill="none" stroke="#4d4d4d" stroke-linecap="round" stroke-linejoin="round" stroke-width="1.813"></line> <line id="Line_533" data-name="Line 533" y1="1.672" x2="1.704" transform="translate(467.403 924.277)" fill="none" stroke="#4d4d4d" stroke-linecap="round" stroke-linejoin="round" stroke-width="1.813"></line> <line id="Line_534" data-name="Line 534" x1="1.845" y1="1.541" transform="translate(458.483 924.277)" fill="none" stroke="#4d4d4d" stroke-linecap="round" stroke-linejoin="round" stroke-width="1.813"></line> <line id="Line_535" data-name="Line 535" x2="2.253" transform="translate(468.752 930.598)" fill="none" stroke="#4d4d4d" stroke-linecap="round" stroke-linejoin="round" stroke-width="1.813"></line> <line id="Line_536" data-name="Line 536" x2="2.253" transform="translate(468.752 937.428)" fill="none" stroke="#4d4d4d" stroke-linecap="round" stroke-linejoin="round" stroke-width="1.813"></line> <line id="Line_537" data-name="Line 537" x2="1.897" transform="translate(479.732 943.921)" fill="none" stroke="#4d4d4d" stroke-linecap="round" stroke-linejoin="round" stroke-width="1.813"></line> <line id="Line_538" data-name="Line 538" x2="1.138" y2="2.051" transform="translate(476.696 950.685)" fill="none" stroke="#4d4d4d" stroke-linecap="round" stroke-linejoin="round" stroke-width="1.813"></line> <line id="Line_539" data-name="Line 539" y2="2.277" transform="translate(471.764 945.526)" fill="none" stroke="#4d4d4d" stroke-linecap="round" stroke-linejoin="round" stroke-width="1.813"></line> <line id="Line_540" data-name="Line 540" y2="1.897" transform="translate(454.691 940.972)" fill="none" stroke="#4d4d4d" stroke-linecap="round" stroke-linejoin="round" stroke-width="1.813"></line> <line id="Line_541" data-name="Line 541" y1="1.518" x2="1.583" transform="translate(450.07 937.937)" fill="none" stroke="#4d4d4d" stroke-linecap="round" stroke-linejoin="round" stroke-width="1.813"></line> <line id="Line_542" data-name="Line 542" x1="1.518" transform="translate(446.34 933.652)" fill="none" stroke="#4d4d4d" stroke-linecap="round" stroke-linejoin="round" stroke-width="1.813"></line> <line id="Line_543" data-name="Line 543" y1="1.83" x2="1.83" transform="translate(452.997 927.83)" fill="none" stroke="#4d4d4d" stroke-linecap="round" stroke-linejoin="round" stroke-width="1.813"></line> <line id="Line_544" data-name="Line 544" x1="2.277" transform="translate(456.586 948.131)" fill="none" stroke="#4d4d4d" stroke-linecap="round" stroke-linejoin="round" stroke-width="1.813"></line> <line id="Line_545" data-name="Line 545" x1="2.277" transform="translate(456.586 955.392)" fill="none" stroke="#4d4d4d" stroke-linecap="round" stroke-linejoin="round" stroke-width="1.813"></line></g></svg>