<svg xmlns="http://www.w3.org/2000/svg" width="69.861" height="52.615" viewBox="0 0 69.861 52.615" slot="icon"><g id="Group_4302" data-name="Group 4302" transform="translate(0.777 0.778)"><path id="Path_2231" data-name="Path 2231" d="M1041.8,974.05V962.215h1.691v-9.13h-2.705v4.4h-4.058v-4.4h-3.043v4.4h-3.72v-4.4h-2.705v4.4H1023.2v-4.4h-3.043v9.13h2.029V974.05h5.41v-3.816a4.3,4.3,0,0,1,4.3-4.3h.193a4.3,4.3,0,0,1,4.3,4.3v3.816Z" transform="translate(-998.177 -926.371)" fill="#60e4dd" opacity="0.4"></path> <path id="Path_2232" data-name="Path 2232" d="M1043.49,953.085v9.13h-23.333v-9.13h3.043v4.4h4.058v-4.4h2.705v4.4h3.72v-4.4h3.043v4.4h4.058v-4.4Z" transform="translate(-998.177 -926.371)" fill="#4dcec4" opacity="0.7"></path> <path id="Path_2233" data-name="Path 2233" d="M1029.93,939l2.809-5.264a1.816,1.816,0,0,1,3.2-.014L1038.81,939" transform="translate(-1000.509 -921.526)" fill="#4dcec4" opacity="0.7"></path> <rect id="Rectangle_1510" data-name="Rectangle 1510" width="17.584" height="4.058" transform="translate(25.023 17.245)" fill="#60e4dd" opacity="0.4"></rect> <g id="Group_4300" data-name="Group 4300" transform="translate(0 0)"><rect id="Rectangle_1511" data-name="Rectangle 1511" width="67.968" height="3.381" rx="1.691" transform="translate(0 47.679)" fill="#4dcec4" opacity="0.7"></rect> <path id="Path_2234" data-name="Path 2234" d="M1047.349,925.5h-6.763v-1.691h1.691v-2.705h5.072Z" transform="translate(-1003.051 -918.742)" fill="#60e4dd" opacity="0.4"></path> <rect id="Rectangle_1512" data-name="Rectangle 1512" width="5.41" height="5.072" transform="translate(33.815)" fill="#4dcec4" opacity="0.7"></rect> <g id="Group_4299" data-name="Group 4299"><path id="Path_2235" data-name="Path 2235" d="M994,980.619h-1.014a1.691,1.691,0,0,0-1.691,1.691h0a1.691,1.691,0,0,0,1.691,1.69h64.924a1.691,1.691,0,0,0,1.691-1.69h0a1.691,1.691,0,0,0-1.691-1.691h-1.352" transform="translate(-991.29 -932.94)" fill="none" stroke="#4d4d4d" stroke-linecap="round" stroke-linejoin="round" stroke-width="1.554"></path> <path id="Path_2236" data-name="Path 2236" d="M1035.7,929.159V918h5.41v5.072h-5.41" transform="translate(-1001.886 -918)" fill="none" stroke="#4d4d4d" stroke-linecap="round" stroke-linejoin="round" stroke-width="1.554"></path> <path id="Path_2237" data-name="Path 2237" d="M1042.615,921.109h4.734v4.565h-6.763v-1.78" transform="translate(-1003.051 -918.742)" fill="none" stroke="#4d4d4d" stroke-linecap="round" stroke-linejoin="round" stroke-width="1.554"></path> <g id="Group_4298" data-name="Group 4298" transform="translate(4.845 21.642)"><path id="Path_2238" data-name="Path 2238" d="M1005.414,953.433h-7.761v-7.01h3v3h2.754v-3h2.754v3h2.754v-3h3v7.01h-2.5l2.5,19.027H997.653l2-18.527" transform="translate(-997.653 -946.423)" fill="none" stroke="#4d4d4d" stroke-linecap="round" stroke-linejoin="round" stroke-width="1.554"></path> <path id="Path_2239" data-name="Path 2239" d="M1057.454,953.934l-2,18.527h14.271l-2.5-19.027h2.5v-7.01h-3v3h-2.754v-3h-2.754v3h-2.754v-3h-3v7.01h7.761" transform="translate(-1011.443 -946.423)" fill="none" stroke="#4d4d4d" stroke-linecap="round" stroke-linejoin="round" stroke-width="1.554"></path> <rect id="Rectangle_1513" data-name="Rectangle 1513" width="3.505" height="3.004" transform="translate(5.383 10.64)" fill="none" stroke="#4d4d4d" stroke-linecap="round" stroke-linejoin="round" stroke-width="1.554"></rect> <rect id="Rectangle_1514" data-name="Rectangle 1514" width="3.505" height="3.004" transform="translate(49.391 10.64)" fill="none" stroke="#4d4d4d" stroke-linecap="round" stroke-linejoin="round" stroke-width="1.554"></rect> <line id="Line_511" data-name="Line 511" x2="3.779" transform="translate(0.602 20.467)" fill="none" stroke="#4d4d4d" stroke-linecap="round" stroke-linejoin="round" stroke-width="1.554"></line> <line id="Line_512" data-name="Line 512" x1="2.277" transform="translate(0.602 21.907)" fill="none" stroke="#4d4d4d" stroke-linecap="round" stroke-linejoin="round" stroke-width="1.554"></line> <line id="Line_513" data-name="Line 513" x1="4.029" transform="translate(53.498 20.467)" fill="none" stroke="#4d4d4d" stroke-linecap="round" stroke-linejoin="round" stroke-width="1.554"></line> <line id="Line_514" data-name="Line 514" x2="2.428" transform="translate(55.1 21.907)" fill="none" stroke="#4d4d4d" stroke-linecap="round" stroke-linejoin="round" stroke-width="1.554"></line></g></g></g> <g id="Group_4301" data-name="Group 4301" transform="translate(18.598 11.252)"><path id="Path_2240" data-name="Path 2240" d="M1041.8,962.215V974.05h-19.613V962.215h-2.029v-9.13h3.043v4.4h4.058v-4.4h2.705v4.4h3.72v-4.4h3.043v4.4h4.058v-4.4h2.705v9.13h-13.526" transform="translate(-1016.776 -937.624)" fill="none" stroke="#4d4d4d" stroke-linecap="round" stroke-linejoin="round" stroke-width="1.554"></path> <path id="Path_2241" data-name="Path 2241" d="M1029.927,978.076v-3.719a4.4,4.4,0,0,1,4.4-4.4h0a4.4,4.4,0,0,1,4.4,4.4v3.719" transform="translate(-1019.107 -941.65)" fill="none" stroke="#4d4d4d" stroke-linecap="round" stroke-linejoin="round" stroke-width="1.554"></path> <line id="Line_515" data-name="Line 515" y1="3.695" transform="translate(22.149 9.945)" fill="none" stroke="#4d4d4d" stroke-linecap="round" stroke-linejoin="round" stroke-width="1.554"></line> <path id="Path_2242" data-name="Path 2242" d="M1036.666,944.675h5.072v-3.72h-17.584v3.72h10.386" transform="translate(-1017.729 -934.73)" fill="none" stroke="#4d4d4d" stroke-linecap="round" stroke-linejoin="round" stroke-width="1.554"></path> <line id="Line_516" data-name="Line 516" y1="3.695" transform="translate(8.285 9.945)" fill="none" stroke="#4d4d4d" stroke-linecap="round" stroke-linejoin="round" stroke-width="1.554"></line> <path id="Path_2243" data-name="Path 2243" d="M1029.93,939l2.809-5.264a1.816,1.816,0,0,1,3.2-.014L1038.81,939" transform="translate(-1019.107 -932.779)" fill="none" stroke="#4d4d4d" stroke-linecap="round" stroke-linejoin="round" stroke-width="1.554"></path> <line id="Line_517" data-name="Line 517" x1="3.043" transform="translate(2.367 32.369)" fill="none" stroke="#4d4d4d" stroke-linecap="round" stroke-linejoin="round" stroke-width="1.554"></line> <line id="Line_518" data-name="Line 518" x1="2.367" transform="translate(25.361 32.369)" fill="none" stroke="#4d4d4d" stroke-linecap="round" stroke-linejoin="round" stroke-width="1.554"></line> <line id="Line_519" data-name="Line 519" x1="1.353" transform="translate(29.081 28.987)" fill="none" stroke="#4d4d4d" stroke-linecap="round" stroke-linejoin="round" stroke-width="1.554"></line> <line id="Line_520" data-name="Line 520" x1="2.367" transform="translate(0 28.987)" fill="none" stroke="#4d4d4d" stroke-linecap="round" stroke-linejoin="round" stroke-width="1.554"></line></g> <line id="Line_521" data-name="Line 521" x1="32.16" transform="translate(18.159 47.679)" fill="none" stroke="#4d4d4d" stroke-linecap="round" stroke-linejoin="round" stroke-width="1.554"></line></g></svg>